<svg width="81" height="93" viewBox="0 0 81 93" fill="none" xmlns="http://www.w3.org/2000/svg">
<path d="M69.983 70.4107C73.3423 69.6182 75.4225 66.2551 74.6293 62.8989C73.836 59.5427 70.4697 57.4645 67.1104 58.2569C63.7511 59.0494 61.6709 62.4126 62.4641 65.7688C63.2574 69.1249 66.6237 71.2032 69.983 70.4107Z" fill="#F6C09C"/>
<path d="M47.5574 69.3763H70.0674V60.3026H47.5574V69.3763Z" fill="#F6C09C"/>
<path d="M72.2631 65.6619H77.7319C79.0014 65.6619 80.0268 64.6375 80.0268 63.3691C80.0268 62.1007 79.0014 61.0763 77.7319 61.0763H72.2631C70.9935 61.0763 69.9681 62.1007 69.9681 63.3691C69.9681 64.6375 70.9935 65.6619 72.2631 65.6619Z" fill="#F6C09C"/>
<path d="M71.7259 63.3691L75.5834 59.5152C76.4623 58.6372 76.4623 57.1737 75.5834 56.2956C74.7045 55.4175 73.2396 55.4175 72.3607 56.2956L68.5032 60.1494C67.6243 61.0275 67.6243 62.491 68.5032 63.3691C69.3822 64.2472 70.847 64.2472 71.7259 63.3691Z" fill="#F6C09C"/>
<path d="M69.6263 66.7839L73.4838 70.6378C74.3627 71.5159 75.8275 71.5159 76.7065 70.6378C77.5854 69.7597 77.5854 68.2962 76.7065 67.4181L72.849 63.5642C71.9701 62.6861 70.5052 62.6861 69.6263 63.5642C68.7474 64.4423 68.7474 65.9058 69.6263 66.7839Z" fill="#F6C09C"/>
<path d="M64.4993 56.5395V62.0032C64.4993 63.2715 65.5247 64.296 66.7942 64.296C68.0638 64.296 69.0892 63.2715 69.0892 62.0032V56.5395C69.0892 55.2711 68.0638 54.2467 66.7942 54.2467C65.5247 54.2467 64.4993 55.3199 64.4993 56.5395Z" fill="#F6C09C"/>
<path d="M67.1849 65.8083V71.272C67.1849 72.5403 68.2103 73.5648 69.4798 73.5648C70.7493 73.5648 71.7747 72.5403 71.7747 71.272V65.8083C71.7747 64.5399 70.7493 63.5155 69.4798 63.5155C68.2103 63.5155 67.1849 64.5399 67.1849 65.8083Z" fill="#F6C09C"/>
<path d="M16.4241 68.7735C18.8649 66.335 18.8649 62.3815 16.4241 59.943C13.9833 57.5045 10.026 57.5045 7.58526 59.943C5.14448 62.3815 5.14448 66.335 7.58526 68.7735C10.026 71.212 13.9833 71.212 16.4241 68.7735Z" fill="#F6C09C"/>
<path d="M33.0048 60.3445H10.4948V69.4182H33.0048V60.3445Z" fill="#F6C09C"/>
<path d="M8.29749 65.6619H2.82867C1.55912 65.6619 0.533722 64.6375 0.533722 63.3691C0.533722 62.1007 1.55912 61.0763 2.82867 61.0763H8.29749C9.56703 61.0763 10.5924 62.1007 10.5924 63.3691C10.5924 64.6375 9.56703 65.6619 8.29749 65.6619Z" fill="#F6C09C"/>
<path d="M8.8346 63.3691L4.97713 59.5152C4.09822 58.6372 4.09822 57.1737 4.97713 56.2956C5.85605 55.4175 7.32091 55.4175 8.19982 56.2956L12.0573 60.1494C12.9362 61.0275 12.9362 62.491 12.0573 63.3691C11.1784 64.2472 9.71351 64.2472 8.8346 63.3691Z" fill="#F6C09C"/>
<path d="M10.9342 66.7839L7.07677 70.6378C6.19785 71.5159 4.73299 71.5159 3.85407 70.6378C2.97516 69.7597 2.97516 68.2962 3.85407 67.4181L7.71154 63.5642C8.59046 62.6861 10.0553 62.6861 10.9342 63.5642C11.8132 64.4423 11.8132 65.9058 10.9342 66.7839Z" fill="#F6C09C"/>
<path d="M16.0612 56.5395V62.0032C16.0612 63.2715 15.0358 64.296 13.7663 64.296C12.4968 64.296 11.4713 63.2715 11.4713 62.0032V56.5395C11.4713 55.2711 12.4968 54.2467 13.7663 54.2467C15.0358 54.2467 16.0612 55.3199 16.0612 56.5395Z" fill="#F6C09C"/>
<path d="M13.3757 65.8083V71.272C13.3757 72.5403 12.3503 73.5648 11.0807 73.5648C9.81117 73.5648 8.78577 72.5403 8.78577 71.272V65.8083C8.78577 64.5399 9.81117 63.5155 11.0807 63.5155C12.3503 63.5155 13.3757 64.5399 13.3757 65.8083Z" fill="#F6C09C"/>
<path d="M68.5521 82.6384H42.5264V92.7365H68.5521V82.6384Z" fill="#F6C09C"/>
<path d="M58.4445 82.6384H42.5264V92.7365H58.4445V82.6384Z" fill="#EE927E"/>
<path d="M66.8431 78.1504C67.8196 78.1504 68.5521 78.9309 68.5521 79.8578V92.7365H65.0852V79.8578C65.1341 78.9309 65.8665 78.1504 66.8431 78.1504Z" fill="#F6C09C"/>
<path d="M11.9893 92.7528H38.015V82.6547H11.9893V92.7528Z" fill="#F6C09C"/>
<path d="M22.1294 92.7528H38.0475V82.6547H22.1294V92.7528Z" fill="#EE927E"/>
<path d="M13.7176 78.1504C12.741 78.1504 12.0086 78.9309 12.0086 79.8578V92.7365H15.4754V79.8578C15.4754 78.9309 14.6941 78.1504 13.7176 78.1504Z" fill="#F6C09C"/>
<path d="M56.882 76.0039H23.6785V72.4427C23.6785 63.2715 31.1005 55.8565 40.2803 55.8565C49.4601 55.8565 56.882 63.2715 56.882 72.4427V76.0039Z" fill="#F6C09C"/>
<path d="M40.2314 65.6131C35.5439 65.6131 31.7352 61.8081 31.7352 57.1249V50.9294C31.7352 46.2463 35.5439 42.4412 40.2314 42.4412C44.919 42.4412 48.7276 46.2463 48.7276 50.9294V57.1249C48.7276 61.8081 44.919 65.6131 40.2314 65.6131Z" fill="#EE927E"/>
<path d="M40.2314 62.1008C35.5439 62.1008 31.7352 58.2957 31.7352 53.6125V47.4171C31.7352 42.7339 35.5439 38.9288 40.2314 38.9288C44.919 38.9288 48.7276 42.7339 48.7276 47.4171V53.6125C48.7276 58.2957 44.919 62.1008 40.2314 62.1008Z" fill="#E9686A"/>
<path d="M61.8137 46.0511C64.5374 46.0511 66.7454 43.8452 66.7454 41.124C66.7454 38.4029 64.5374 36.1969 61.8137 36.1969C59.09 36.1969 56.882 38.4029 56.882 41.124C56.882 43.8452 59.09 46.0511 61.8137 46.0511Z" fill="#EE927E"/>
<path d="M18.7468 46.0511C21.4705 46.0511 23.6785 43.8452 23.6785 41.124C23.6785 38.4029 21.4705 36.1969 18.7468 36.1969C16.0231 36.1969 13.8151 38.4029 13.8151 41.124C13.8151 43.8452 16.0231 46.0511 18.7468 46.0511Z" fill="#EE927E"/>
<path d="M49.2713 57.2414C61.2555 52.2819 66.9464 38.5554 61.9823 26.5825C57.0182 14.6095 43.2788 8.92392 31.2947 13.8834C19.3105 18.8429 13.6196 32.5693 18.5837 44.5423C23.5478 56.5153 37.2871 62.2009 49.2713 57.2414Z" fill="#F6C09C"/>
<path d="M34.0302 22.4401C39.6455 22.4401 44.2354 18.0009 44.5284 12.4884C43.1612 12.2445 41.7451 12.0981 40.3291 12.0981C34.5673 12.0981 29.2938 14.147 25.1922 17.6106C27.0477 20.4888 30.2704 22.4401 34.0302 22.4401Z" fill="#EE927E"/>
<path d="M40.3779 51.6124C28.5614 51.6124 18.7468 42.8802 17.1355 31.5138C16.8913 32.8309 16.7937 34.1481 16.7937 35.5628C16.7937 48.5391 27.2918 59.0274 40.2803 59.0274C53.2687 59.0274 63.7669 48.5391 63.7669 35.5628C63.7669 34.392 63.6692 33.27 63.5227 32.1479C61.6184 43.2217 51.9991 51.6124 40.3779 51.6124Z" fill="#F5B296"/>
<path d="M40.2802 52.832C43.7959 52.832 46.6768 50.0025 46.6768 46.4414H33.9325C33.8837 49.9538 36.7646 52.832 40.2802 52.832Z" fill="white"/>
<path d="M28.4149 43.4656C27.4871 43.4656 26.7059 42.6851 26.7059 41.7582V39.6605C26.7059 38.7337 27.4871 37.9531 28.4149 37.9531C29.3426 37.9531 30.1239 38.7337 30.1239 39.6605V41.7582C30.1239 42.6851 29.3426 43.4656 28.4149 43.4656Z" fill="#002334"/>
<path d="M52.1456 43.4656C51.2179 43.4656 50.4366 42.6851 50.4366 41.7582V39.6605C50.4366 38.7337 51.2179 37.9531 52.1456 37.9531C53.0734 37.9531 53.8546 38.7337 53.8546 39.6605V41.7582C53.8058 42.6851 53.0734 43.4656 52.1456 43.4656Z" fill="#002334"/>
<path d="M45.4834 12.6009C46.2956 7.60107 42.8971 2.89014 37.8926 2.07871C32.8881 1.26728 28.1728 4.66261 27.3606 9.66239C26.5484 14.6622 29.9469 19.3731 34.9514 20.1845C39.9559 20.996 44.6712 17.6006 45.4834 12.6009Z" fill="#DD2B26"/>
<path d="M48.0489 18.1548C49.9425 17.3712 50.8417 15.2023 50.0573 13.3105C49.273 11.4188 47.1021 10.5204 45.2085 11.304C43.315 12.0877 42.4158 14.2565 43.2002 16.1483C43.9845 18.0401 46.1554 18.9384 48.0489 18.1548Z" fill="#DD2B26"/>
<path d="M56.882 72.833H23.6785V76.0039H56.882V72.833Z" fill="#F5B296"/>
<path d="M51.7062 69.906C51.7062 70.4914 51.2179 70.9793 50.6319 70.9793C50.046 70.9793 49.5577 70.4914 49.5577 69.906C49.5577 69.3207 50.046 68.8328 50.6319 68.8328C51.2179 68.8816 51.7062 69.3207 51.7062 69.906Z" fill="#EE927E"/>
<path d="M31.0028 69.906C31.0028 70.4914 30.5145 70.9793 29.9286 70.9793C29.3426 70.9793 28.8544 70.4914 28.8544 69.906C28.8544 69.3207 29.3426 68.8328 29.9286 68.8328C30.5145 68.8816 31.0028 69.3207 31.0028 69.906Z" fill="#EE927E"/>
<path d="M47.1654 92.737H33.4445C28.0734 92.737 23.7276 88.3953 23.7276 83.0291V76.0531H56.9311V83.0291C56.8823 88.3953 52.5365 92.737 47.1654 92.737Z" fill="#F1F2F2"/>
<path d="M56.7844 76.0039V77.4186C56.7844 82.7848 52.4386 87.1265 47.0675 87.1265H33.3466C28.3661 87.1265 24.2645 83.3702 23.6785 78.5407V82.9311C23.6785 88.2973 28.0243 92.639 33.3954 92.639H47.1163C52.4874 92.639 56.8332 88.2973 56.8332 82.9311V75.9552H56.7844V76.0039Z" fill="#CCDDE7"/>
<path d="M56.3449 86.1996L46.1397 76.0039H35.8857L51.5597 91.6633C53.757 90.5413 55.5148 88.59 56.3449 86.1996Z" fill="#CCDDE7"/>
</svg>
