<svg width="173" height="221" viewBox="0 0 173 221" fill="none" xmlns="http://www.w3.org/2000/svg">
<path d="M86.5244 167.696H66.6023V384H86.5244V167.696Z" fill="#254983"/>
<path d="M86.3291 193.746C75.4891 193.746 66.6023 184.867 66.6023 174.038V155.354C66.6023 144.524 75.4891 135.645 86.3291 135.645C97.1691 135.645 106.056 144.524 106.056 155.354V174.038C106.105 184.867 97.2179 193.746 86.3291 193.746Z" fill="#0980B7"/>
<path d="M106.007 154.183H66.7V168.672H106.007V154.183Z" fill="#254983"/>
<path d="M106.105 169.306H86.4756V384H106.105V169.306Z" fill="#0980B7"/>
<path d="M22.217 277.019C34.473 277.019 44.4341 267.067 44.4341 254.822V145.256H0V254.822C0 267.116 9.96105 277.019 22.217 277.019Z" fill="#F6C09C"/>
<path d="M44.4341 93.692V145.256H0V138.085C0 113.547 19.9221 93.692 44.4341 93.692Z" fill="#DD2B26"/>
<path d="M0.0164032 152.391H44.4505V145.22H0.0164032V152.391Z" fill="#EE927E"/>
<path d="M150.783 277.019C138.527 277.019 128.566 267.067 128.566 254.822V145.256H173V254.822C173 267.116 163.088 277.019 150.783 277.019Z" fill="#F6C09C"/>
<path d="M128.566 93.692V145.256H173V138.085C173 113.547 153.127 93.692 128.566 93.692Z" fill="#DD2B26"/>
<path d="M173 145.256H128.566V152.427H173V145.256Z" fill="#EE927E"/>
<path d="M120.753 161.647H52.2467C32.8617 161.647 17.0412 145.792 17.0412 126.474C17.0412 107.107 32.9105 91.3016 52.2467 91.3016H120.753C140.138 91.3016 155.959 107.156 155.959 126.474C156.008 145.841 140.138 161.647 120.753 161.647Z" fill="#FED767"/>
<path d="M120.753 153.695H52.2467C34.2289 153.695 19.2385 139.987 17.2365 122.474C17.09 123.791 16.9924 125.108 16.9924 126.474C16.9924 145.841 32.8617 161.647 52.1978 161.647H120.704C140.089 161.647 155.91 145.792 155.91 126.474C155.91 125.108 155.812 123.791 155.666 122.474C153.761 139.987 138.771 153.695 120.753 153.695Z" fill="#FEBF3F"/>
<path d="M86.5244 144.573C83.8388 144.573 81.6415 142.377 81.6415 139.694V113.108H91.4073V139.694C91.4073 142.377 89.21 144.573 86.5244 144.573Z" fill="#DD2B26"/>
<path d="M86.5244 118.913L61.3288 93.7407C58.5944 91.0089 60.5476 86.2769 64.405 86.2769H108.644C112.55 86.2769 114.454 90.9601 111.72 93.7407L86.5244 118.913Z" fill="#DD2B26"/>
<path d="M75.4403 18.2245C77.2741 18.2245 78.7607 16.7394 78.7607 14.9073C78.7607 13.0752 77.2741 11.5901 75.4403 11.5901C73.6065 11.5901 72.1199 13.0752 72.1199 14.9073C72.1199 16.7394 73.6065 18.2245 75.4403 18.2245Z" fill="#0B3442"/>
<path d="M96.9738 13.1511C96.9738 15.0049 95.4601 16.4684 93.6534 16.4684C91.8468 16.4684 90.3331 14.9561 90.3331 13.1511C90.3331 11.2974 91.8468 9.83386 93.6534 9.83386C95.4601 9.83386 96.9738 11.2974 96.9738 13.1511Z" fill="#0B3442"/>
<path d="M69.9493 38.6855C71.6845 36.9519 71.6845 34.1411 69.9493 32.4075C68.2141 30.6739 65.4007 30.6739 63.6654 32.4075C61.9302 34.1411 61.9302 36.9519 63.6654 38.6855C65.4007 40.4191 68.2141 40.4191 69.9493 38.6855Z" fill="#EE927E"/>
<path d="M110.326 38.6755C112.061 36.9419 112.061 34.1312 110.326 32.3975C108.591 30.6639 105.777 30.6639 104.042 32.3975C102.307 34.1312 102.307 36.9419 104.042 38.6755C105.777 40.4092 108.591 40.4092 110.326 38.6755Z" fill="#EE927E"/>
<path d="M86.5244 114.913L106.398 95.0579V80.6669C106.398 69.7395 97.462 60.8122 86.5244 60.8122C75.5868 60.8122 66.6511 69.7395 66.6511 80.6669V95.0579L86.5244 114.913Z" fill="#EE927E"/>
<path d="M86.5244 101.595C75.5868 101.595 66.6511 92.6675 66.6511 81.7401V40.9087C66.6511 29.9813 75.5868 21.054 86.5244 21.054C97.462 21.054 106.398 29.9813 106.398 40.9087V81.7401C106.398 92.6675 97.462 101.595 86.5244 101.595Z" fill="#E9686A"/>
<path d="M86.5244 91.3992C75.5868 91.3992 66.6511 82.4719 66.6511 71.5444V30.713C66.6511 19.7856 75.5868 10.8583 86.5244 10.8583C97.462 10.8583 106.398 19.7856 106.398 30.713V71.5444C106.398 82.4719 97.462 91.3992 86.5244 91.3992Z" fill="#F6C09C"/>
<path d="M83.0088 16.0293C84.2295 16.0293 85.4014 15.7366 86.4268 15.1512C86.915 15.3951 87.501 15.5415 88.0869 15.5415C90.0401 15.5415 91.6514 13.9316 91.6514 11.9803C91.6514 11.834 91.6514 11.6388 91.6026 11.4925C89.9913 11.0534 88.2822 10.8095 86.5244 10.8095C83.1552 10.8095 80.0302 11.6388 77.247 13.1511C78.5653 14.9073 80.665 16.0293 83.0088 16.0293Z" fill="#EE927E"/>
<path d="M86.5244 96.5214C72.6571 96.5214 61.3288 85.2037 61.3288 71.3493V51.8849C61.3288 38.0305 72.6571 26.7128 86.5244 26.7128C100.392 26.7128 111.72 38.0305 111.72 51.8849V71.3493C111.72 85.1549 100.392 96.5214 86.5244 96.5214Z" fill="#F6C09C"/>
<path d="M111.427 48.1773V60.7146C111.427 74.569 100.099 85.8866 86.2315 85.8866C73.6337 85.8866 63.0867 76.5203 61.28 64.3733V71.3005C61.28 85.1549 72.6083 96.4726 86.4756 96.4726C100.343 96.4726 111.671 85.1549 111.671 71.3005V51.8361C111.72 50.6165 111.622 49.3481 111.427 48.1773Z" fill="#F5B296"/>
<path d="M78.6142 37.2987C78.7118 41.5916 82.2275 45.0065 86.5244 45.0065C90.8213 45.0065 94.337 41.5916 94.4347 37.2987H78.6142Z" fill="white"/>
<path d="M101.222 29.2007H96.0948C94.9718 29.2007 94.0929 28.2739 94.0929 27.2006C94.0929 26.0786 95.0206 25.2005 96.0948 25.2005H101.222C102.345 25.2005 103.224 26.1274 103.224 27.2006C103.273 28.3226 102.345 29.2007 101.222 29.2007Z" fill="#EE927E"/>
<path d="M101.222 26.2737H96.0948C94.9718 26.2737 94.0929 25.3469 94.0929 24.2736C94.0929 23.1516 95.0206 22.2735 96.0948 22.2735H101.222C102.345 22.2735 103.224 23.2004 103.224 24.2736C103.273 25.3469 102.345 26.2737 101.222 26.2737Z" fill="#0B3442"/>
<path d="M98.6828 28.8105C98.048 28.8105 97.5597 28.3226 97.5597 27.6885V25.4444C97.5597 24.8103 98.048 24.3224 98.6828 24.3224C99.3175 24.3224 99.8058 24.8103 99.8058 25.4444V27.6885C99.8058 28.3226 99.2687 28.8105 98.6828 28.8105Z" fill="#002334"/>
<path d="M77.2958 29.2007H72.1688C71.0457 29.2007 70.1668 28.2739 70.1668 27.2006C70.1668 26.0786 71.0946 25.2005 72.1688 25.2005H77.2958C78.4189 25.2005 79.2978 26.1274 79.2978 27.2006C79.2978 28.3226 78.4189 29.2007 77.2958 29.2007Z" fill="#EE927E"/>
<path d="M77.2958 26.2737H72.1688C71.0457 26.2737 70.1668 25.3469 70.1668 24.2736C70.1668 23.1516 71.0946 22.2735 72.1688 22.2735H77.2958C78.4189 22.2735 79.2978 23.2004 79.2978 24.2736C79.2978 25.3469 78.4189 26.2737 77.2958 26.2737Z" fill="#0B3442"/>
<path d="M74.7079 28.8105C74.0731 28.8105 73.5848 28.3226 73.5848 27.6885V25.4444C73.5848 24.8103 74.0731 24.3224 74.7079 24.3224C75.3426 24.3224 75.8309 24.8103 75.8309 25.4444V27.6885C75.8309 28.3226 75.3426 28.8105 74.7079 28.8105Z" fill="#002334"/>
<path d="M89.4541 14.2731C91.4228 14.2731 93.0186 12.6787 93.0186 10.7119C93.0186 8.74517 91.4228 7.15079 89.4541 7.15079C87.4855 7.15079 85.8896 8.74517 85.8896 10.7119C85.8896 12.6787 87.4855 14.2731 89.4541 14.2731Z" fill="#0B3442"/>
<path d="M80.7626 14.7122C84.8077 14.7122 88.0869 11.436 88.0869 7.3947C88.0869 3.35338 84.8077 0.07724 80.7626 0.07724C76.7175 0.07724 73.4383 3.35338 73.4383 7.3947C73.4383 11.436 76.7175 14.7122 80.7626 14.7122Z" fill="#0B3442"/>
<path d="M88.2823 139.255C88.2823 140.231 87.501 141.012 86.5244 141.012C85.5479 141.012 84.7666 140.231 84.7666 139.255C84.7666 138.28 85.5479 137.499 86.5244 137.499C87.501 137.45 88.2823 138.28 88.2823 139.255Z" fill="white"/>
<path d="M88.2823 121.937C88.2823 122.913 87.501 123.694 86.5244 123.694C85.5479 123.694 84.7666 122.913 84.7666 121.937C84.7666 120.962 85.5479 120.181 86.5244 120.181C87.501 120.181 88.2823 120.962 88.2823 121.937Z" fill="white"/>
<path d="M88.2823 130.572C88.2823 131.548 87.501 132.328 86.5244 132.328C85.5479 132.328 84.7666 131.548 84.7666 130.572C84.7666 129.596 85.5479 128.816 86.5244 128.816C87.501 128.816 88.2823 129.596 88.2823 130.572Z" fill="white"/>
<path d="M78.6142 37.2987C78.7118 41.5916 82.2275 45.0065 86.5244 45.0065C90.8213 45.0065 94.337 41.5916 94.4347 37.2987H78.6142Z" fill="white"/>
</svg>
